<svg xmlns="http://www.w3.org/2000/svg" viewBox="0 0 73.35 73.35"><defs><style>.cls-1{fill:#e9e1c1;stroke-linecap:round;}.cls-1,.cls-2{stroke:#5a0607;stroke-miterlimit:10;stroke-width:2px;}.cls-2{fill:#e6bd84;}.cls-3{fill:#eadec2;}</style></defs><g id="Layer_2" data-name="Layer 2"><g id="Layer_1-2" data-name="Layer 1"><circle class="cls-1" cx="36.68" cy="36.68" r="35.68"/><circle class="cls-2" cx="36.75" cy="36.9" r="28.14"/><path class="cls-3" d="M22.68,45.7a5.29,5.29,0,0,1-5-3.61c-1-3.07-1.06-11.41,3.47-17.69,2.54-3.52,7.46-7.72,16.49-7.72a5.28,5.28,0,1,1,0,10.55c-3.53,0-6,1-7.66,3-2.43,3-2.46,7.54-2.24,8.66a5.28,5.28,0,0,1-3.38,6.54A5.45,5.45,0,0,1,22.68,45.7Zm5.06-6.77h0Zm-.06-.18,0,.08Z"/><path class="cls-3" d="M42.26,53.68a3.52,3.52,0,1,1,0-7c2.38,0,3.18-1,3.44-1.27a6,6,0,0,0,1.06-4,3.52,3.52,0,0,1,6.72-2.08,12.57,12.57,0,0,1-1.93,10C50.11,51.3,47.33,53.68,42.26,53.68Zm4.52-12.24,0,.1Z"/></g></g></svg>