<svg xmlns="http://www.w3.org/2000/svg" viewBox="0 0 22 22"><defs><style>.cls-1{fill:#99b27c;}.cls-2{fill:#5a0607;}.cls-3{fill:#eadec2;}</style></defs><g id="Layer_2" data-name="Layer 2"><g id="Layer_1-2" data-name="Layer 1"><circle class="cls-1" cx="11" cy="11" r="9.78"/><path class="cls-2" d="M11,22A11,11,0,1,1,22,11,11,11,0,0,1,11,22ZM11,2.44A8.56,8.56,0,1,0,19.56,11,8.57,8.57,0,0,0,11,2.44Z"/><path class="cls-3" d="M6.11,14.06A1.84,1.84,0,0,1,4.37,12.8,7.88,7.88,0,0,1,5.58,6.66,6.64,6.64,0,0,1,11.31,4a1.84,1.84,0,0,1,0,3.67,3.21,3.21,0,0,0-2.67,1,4.37,4.37,0,0,0-.77,3A1.83,1.83,0,0,1,6.69,14,1.69,1.69,0,0,1,6.11,14.06ZM7.87,11.7Zm0-.06v0Z"/><path class="cls-3" d="M12.91,16.83a1.22,1.22,0,0,1,0-2.44,1.41,1.41,0,0,0,1.2-.44,2.09,2.09,0,0,0,.37-1.39,1.22,1.22,0,0,1,2.33-.72,4.32,4.32,0,0,1-.67,3.47A3.76,3.76,0,0,1,12.91,16.83Zm1.57-4.25a0,0,0,0,1,0,0Z"/></g></g></svg>