<svg xmlns="http://www.w3.org/2000/svg" viewBox="0 0 26.31 26.31"><defs><style>.cls-1{fill:#f44336;}.cls-2,.cls-5{fill:#e9e1c1;}.cls-3{fill:#5a0607;}.cls-4{fill:#eadec2;}.cls-5{stroke:#5a0607;stroke-miterlimit:10;}</style></defs><g id="Layer_2" data-name="Layer 2"><g id="Layer_1-2" data-name="Layer 1"><path class="cls-1" d="M16.13,13.17l9.93,0s-1-13-12.75-13C3.41.71.79,9.53.79,13.15Z"/><path class="cls-2" d="M10.06,13.15l-9.93,0S1.49,25.35,13.22,25.35c9.9-.52,12.18-8.56,12.19-12.18Z"/><path class="cls-3" d="M13.15,26.31A13.16,13.16,0,1,1,26.31,13.15,13.17,13.17,0,0,1,13.15,26.31ZM13.15.9A12.25,12.25,0,1,0,25.4,13.15,12.27,12.27,0,0,0,13.15.9Z"/><path class="cls-4" d="M6.71,8.25a1.22,1.22,0,0,1-.88-1.13A5.32,5.32,0,0,1,7.77,3.4,4.48,4.48,0,0,1,12,2.76a1.23,1.23,0,0,1-.69,2.36,2.16,2.16,0,0,0-1.91.16A2.9,2.9,0,0,0,8.29,7.07,1.23,1.23,0,0,1,7.1,8.3,1,1,0,0,1,6.71,8.25ZM8.29,7.08Zm0,0V7Z"/><circle class="cls-5" cx="13.21" cy="13.15" r="3.15"/></g></g></svg>